<?xml version="1.0" encoding="UTF-8" standalone="no"?>
<!-- Created with Inkscape (http://www.inkscape.org/) -->

<!-- 362 == 256 * sqrt(2) -->

<svg
   xmlns:dc="http://purl.org/dc/elements/1.1/"
   xmlns:cc="http://creativecommons.org/ns#"
   xmlns:rdf="http://www.w3.org/1999/02/22-rdf-syntax-ns#"
   xmlns:svg="http://www.w3.org/2000/svg"
   xmlns="http://www.w3.org/2000/svg"
   xmlns:sodipodi="http://sodipodi.sourceforge.net/DTD/sodipodi-0.dtd"
   xmlns:inkscape="http://www.inkscape.org/namespaces/inkscape"
   viewBox="0 0 24 24"
   id="svg2"
   version="1.1"
   inkscape:version="0.48.5 r10040"
   sodipodi:docname="operation.svg"
   width="100%"
   height="100%">
  <defs
     id="defs4">
    <marker
       inkscape:stockid="TriangleInM"
       orient="auto"
       refY="0.0"
       refX="0.0"
       id="TriangleInM"
       style="overflow:visible">
      <path
         id="path3988"
         d="M 5.77,0.0 L -2.88,5.0 L -2.88,-5.0 L 5.77,0.0 z "
         style="fill-rule:evenodd;stroke:#000000;stroke-width:1.0pt"
         transform="scale(-0.4)" />
    </marker>
    <marker
       inkscape:stockid="TriangleInS"
       orient="auto"
       refY="0.0"
       refX="0.0"
       id="TriangleInS"
       style="overflow:visible">
      <path
         id="path3991"
         d="M 5.77,0.0 L -2.88,5.0 L -2.88,-5.0 L 5.77,0.0 z "
         style="fill-rule:evenodd;stroke:#000000;stroke-width:1.0pt"
         transform="scale(-0.2)" />
    </marker>
    <marker
       inkscape:stockid="Arrow1Sstart"
       orient="auto"
       refY="0.0"
       refX="0.0"
       id="Arrow1Sstart"
       style="overflow:visible">
      <path
         id="path3864"
         d="M 0.0,0.0 L 5.0,-5.0 L -12.5,0.0 L 5.0,5.0 L 0.0,0.0 z "
         style="fill-rule:evenodd;stroke:#000000;stroke-width:1.0pt"
         transform="scale(0.2) translate(6,0)" />
    </marker>
    <marker
       inkscape:stockid="Scissors"
       orient="auto"
       refY="0"
       refX="0"
       id="Scissors"
       style="overflow:visible">
      <path
         id="schere"
         d="M 9.0898857,-3.6061018 C 8.1198849,-4.7769976 6.3697607,-4.7358294 5.0623558,-4.2327734 l -8.2124046,3.0779029 c -2.3882933,-1.3067135 -4.7482873,-0.9325372 -4.7482873,-1.5687873 0,-0.4973164 0.4566662,-0.3883222 0.3883068,-1.6831941 -0.065635,-1.2432767 -1.3635771,-2.1630796 -2.5903987,-2.0816435 -1.227271,-0.00735 -2.499439,0.9331613 -2.510341,2.2300611 -0.09143,1.3063864 1.007209,2.5196896 2.306764,2.6052316 1.5223406,0.2266616 4.218258,-0.6955566 5.482945,1.57086006 -0.9422847,1.73825774 -2.6140244,1.74307674 -4.1255107,1.65607034 -1.2548743,-0.072235 -2.7620933,0.2873979 -3.3606483,1.5208605 -0.578367,1.1820862 -0.0112,2.8646022 1.316749,3.226412 1.3401912,0.4918277 3.1806689,-0.129711 3.4993722,-1.6707242 0.2456585,-1.187823 -0.5953659,-1.7459574 -0.2725074,-2.1771537 0.2436135,-0.32536 1.7907806,-0.1368452 4.5471053,-1.3748244 L 5.6763468,4.2330688 C 6.8000164,4.5467672 8.1730685,4.5362646 9.1684433,3.4313614 L -0.05164093,-0.05372222 9.0898857,-3.6061018 z m -18.3078016,-1.900504 c 1.294559,0.7227998 1.1888392,2.6835702 -0.1564272,3.0632889 -1.2165179,0.423661 -2.7710269,-0.7589694 -2.3831779,-2.0774648 0.227148,-1.0818519 1.653387,-1.480632 2.5396051,-0.9858241 z m 0.056264,8.0173649 c 1.3508301,0.4988648 1.1214429,2.7844356 -0.2522207,3.091609 -0.9110594,0.3163391 -2.2135494,-0.1387976 -2.3056964,-1.2121394 -0.177609,-1.305055 1.356085,-2.4841482 2.5579171,-1.8794696 z"
         style="fill:#000000"
         inkscape:connector-curvature="0" />
    </marker>
    <marker
       inkscape:stockid="TriangleOutS"
       orient="auto"
       refY="0"
       refX="0"
       id="TriangleOutS"
       style="overflow:visible">
      <path
         id="path4000"
         d="m 5.77,0 -8.65,5 0,-10 8.65,5 z"
         style="fill-rule:evenodd;stroke:#000000;stroke-width:1pt"
         transform="scale(0.2,0.2)"
         inkscape:connector-curvature="0" />
    </marker>
    <marker
       inkscape:stockid="TriangleOutM"
       orient="auto"
       refY="0"
       refX="0"
       id="TriangleOutM"
       style="overflow:visible">
      <path
         id="path3997"
         d="m 5.77,0 -8.65,5 0,-10 8.65,5 z"
         style="fill-rule:evenodd;stroke:#000000;stroke-width:1pt"
         transform="scale(0.4,0.4)"
         inkscape:connector-curvature="0" />
    </marker>
    <marker
       inkscape:stockid="TriangleOutL"
       orient="auto"
       refY="0"
       refX="0"
       id="TriangleOutL"
       style="overflow:visible">
      <path
         id="path3994"
         d="m 5.77,0 -8.65,5 0,-10 8.65,5 z"
         style="fill-rule:evenodd;stroke:#000000;stroke-width:1pt"
         transform="scale(0.8,0.8)"
         inkscape:connector-curvature="0" />
    </marker>
    <marker
       inkscape:stockid="Arrow2Lend"
       orient="auto"
       refY="0"
       refX="0"
       id="Arrow2Lend"
       style="overflow:visible">
      <path
         id="path3873"
         style="fill-rule:evenodd;stroke-width:0.625;stroke-linejoin:round"
         d="M 8.7185878,4.0337352 -2.2072895,0.01601326 8.7185884,-4.0017078 c -1.7454984,2.3720609 -1.7354408,5.6174519 -6e-7,8.035443 z"
         transform="matrix(-1.1,0,0,-1.1,-1.1,0)"
         inkscape:connector-curvature="0" />
    </marker>
    <marker
       inkscape:stockid="Arrow1Lend"
       orient="auto"
       refY="0"
       refX="0"
       id="Arrow1Lend"
       style="overflow:visible">
      <path
         id="path3855"
         d="M 0,0 5,-5 -12.5,0 5,5 0,0 z"
         style="fill-rule:evenodd;stroke:#000000;stroke-width:1pt"
         transform="matrix(-0.8,0,0,-0.8,-10,0)"
         inkscape:connector-curvature="0" />
    </marker>
    <marker
       inkscape:stockid="Arrow1Mend"
       orient="auto"
       refY="0"
       refX="0"
       id="Arrow1Mend"
       style="overflow:visible">
      <path
         id="path3861"
         d="M 0,0 5,-5 -12.5,0 5,5 0,0 z"
         style="fill-rule:evenodd;stroke:#000000;stroke-width:1pt"
         transform="matrix(-0.4,0,0,-0.4,-4,0)"
         inkscape:connector-curvature="0" />
    </marker>
    <marker
       inkscape:stockid="TriangleOutM"
       orient="auto"
       refY="0"
       refX="0"
       id="TriangleOutM-8"
       style="overflow:visible">
      <path
         inkscape:connector-curvature="0"
         id="path3997-8"
         d="m 5.77,0 -8.65,5 0,-10 8.65,5 z"
         style="fill-rule:evenodd;stroke:#000000;stroke-width:1pt"
         transform="scale(0.4,0.4)" />
    </marker>
  </defs>
  <sodipodi:namedview
     id="base"
     pagecolor="#ffffff"
     bordercolor="#666666"
     borderopacity="1.0"
     inkscape:pageopacity="0.0"
     inkscape:pageshadow="2"
     inkscape:zoom="22.4"
     inkscape:cx="-10.69527"
     inkscape:cy="19.553571"
     inkscape:document-units="px"
     inkscape:current-layer="g4322"
     showgrid="true"
     inkscape:snap-global="false"
     showguides="true"
     inkscape:guide-bbox="true"
     inkscape:window-width="2560"
     inkscape:window-height="1371"
     inkscape:window-x="1912"
     inkscape:window-y="-8"
     inkscape:window-maximized="1">
    <inkscape:grid
       type="xygrid"
       id="grid2989"
       empspacing="5"
       visible="true"
       enabled="true"
       snapvisiblegridlinesonly="true" />
    <sodipodi:guide
       orientation="1,0"
       position="12.008929,13.973214"
       id="guide4318" />
    <sodipodi:guide
       orientation="0,1"
       position="15.491071,12.008929"
       id="guide4320" />
  </sodipodi:namedview>
  <metadata
     id="metadata7">
    <rdf:RDF>
      <cc:Work
         rdf:about="">
        <dc:format>image/svg+xml</dc:format>
        <dc:type
           rdf:resource="http://purl.org/dc/dcmitype/StillImage" />
        <dc:title></dc:title>
      </cc:Work>
    </rdf:RDF>
  </metadata>
  <g
     inkscape:label="Layer 1"
     inkscape:groupmode="layer"
     id="layer1"
     transform="translate(0,-1028.3622)"
     style="opacity:0.26422765;display:inline"
     sodipodi:insensitive="true">
    <path
       sodipodi:type="arc"
       style="fill:#008080"
       id="path2987"
       sodipodi:cx="127.91057"
       sodipodi:cy="128.08943"
       sodipodi:rx="128.1631"
       sodipodi:ry="128.1631"
       d="m 256.07367,128.08943 c 0,70.78253 -57.38058,128.1631 -128.1631,128.1631 -70.782528,0 -128.16310296,-57.38057 -128.16310296,-128.1631 0,-70.782525 57.38057496,-128.16309943 128.16310296,-128.16309943 70.78252,0 128.1631,57.38057443 128.1631,128.16309943 z"
       transform="matrix(0.12484092,0,0,0.12484092,-3.9679686,1024.3709)" />
    <text
       xml:space="preserve"
       style="font-size:5px;font-style:normal;font-weight:normal;line-height:125%;letter-spacing:0px;word-spacing:0px;fill:#000000;fill-opacity:1;stroke:none;font-family:sans-serif"
       x="-3.6465712"
       y="1023.131"
       id="text2991"
       sodipodi:linespacing="125%"><tspan
         sodipodi:role="line"
         id="tspan2993"
         x="-3.6465712"
         y="1023.131"
         style="font-style:normal;font-variant:normal;font-weight:bold;font-stretch:normal;font-family:Source Code Pro;-inkscape-font-specification:Source Code Pro Bold">1234567890</tspan></text>
    <path
       style="fill:none;stroke:#000000;stroke-width:0.1239901px;stroke-linecap:butt;stroke-linejoin:miter;stroke-opacity:1"
       d="m -3.9375,1024.4241 31.87601,31.8756"
       id="path3050"
       inkscape:connector-curvature="0" />
  </g>
  <g
     inkscape:groupmode="layer"
     id="g4081"
     inkscape:label="Layer"
     style="display:none"
     sodipodi:insensitive="true">
    <text
       xml:space="preserve"
       style="font-size:40px;font-style:normal;font-weight:normal;line-height:125%;letter-spacing:0px;word-spacing:0px;fill:#000000;fill-opacity:1;stroke:none;font-family:sans-serif"
       x="0.089285783"
       y="12.649883"
       id="text4146"
       sodipodi:linespacing="125%"><tspan
         sodipodi:role="line"
         id="tspan4148"
         x="0.089285783"
         y="12.649883"
         style="font-size:20px;font-style:normal;font-variant:normal;font-weight:bold;font-stretch:normal;font-family:Source Code Pro;-inkscape-font-specification:Source Code Pro Bold">+</tspan></text>
    <text
       xml:space="preserve"
       style="font-size:40px;font-style:normal;font-weight:normal;line-height:125%;letter-spacing:0px;word-spacing:0px;fill:#000000;fill-opacity:1;stroke:none;font-family:sans-serif"
       x="11.895853"
       y="24.476961"
       id="text4150"
       sodipodi:linespacing="125%"><tspan
         sodipodi:role="line"
         id="tspan4152"
         x="11.895853"
         y="24.476961"
         style="font-size:20px;font-style:normal;font-variant:normal;font-weight:bold;font-stretch:normal;font-family:Source Code Pro;-inkscape-font-specification:Source Code Pro Bold">÷</tspan></text>
    <text
       xml:space="preserve"
       style="font-size:40px;font-style:normal;font-weight:normal;line-height:125%;letter-spacing:0px;word-spacing:0px;fill:#000000;fill-opacity:1;stroke:none;font-family:sans-serif"
       x="11.895853"
       y="12.649883"
       id="text4154"
       sodipodi:linespacing="125%"><tspan
         sodipodi:role="line"
         id="tspan4156"
         x="11.895853"
         y="12.649883"
         style="font-size:20px;font-style:normal;font-variant:normal;font-weight:bold;font-stretch:normal;font-family:Source Code Pro;-inkscape-font-specification:Source Code Pro Bold">−</tspan></text>
    <text
       xml:space="preserve"
       style="font-size:20px;font-style:normal;font-variant:normal;font-weight:normal;font-stretch:normal;line-height:125%;letter-spacing:0px;word-spacing:0px;fill:#000000;fill-opacity:1;stroke:none;font-family:Source Code Pro;-inkscape-font-specification:Source Code Pro"
       x="0.089285783"
       y="24.46689"
       id="text4158"
       sodipodi:linespacing="125%"><tspan
         sodipodi:role="line"
         id="tspan4160"
         x="0.089285783"
         y="24.46689"
         style="font-weight:bold;-inkscape-font-specification:Source Code Pro Bold">×</tspan></text>
  </g>
  <g
     style="display:inline"
     inkscape:label="Layer copy"
     id="g4322"
     inkscape:groupmode="layer">
    <g
       style="font-size:40px;font-style:normal;font-weight:normal;line-height:125%;letter-spacing:0px;word-spacing:0px;fill-opacity:1;stroke:none;font-family:sans-serif"
       id="text4324">
      <path
         d="m 5.0093297,10.77 0,-3.6804195 -3.5198974,0 0,-2.0794677 3.5198974,0 0,-3.68042 2.1600342,0 0,3.68042 3.5198971,0 0,2.0794677 -3.5198971,0 0,3.6804195 z"
         style="font-size:20px;font-variant:normal;font-weight:bold;font-stretch:normal;font-family:Source Code Pro;-inkscape-font-specification:Source Code Pro Bold;"
         id="path4350" />
    </g>
    <g
       style="font-size:40px;font-style:normal;font-weight:normal;line-height:125%;letter-spacing:0px;word-spacing:0px;fill-opacity:1;stroke:none;font-family:sans-serif"
       id="text4328">
      <path
         d="m 17.895609,15.816683 c -0.466314,8e-6 -0.85287,-0.143322 -1.159668,-0.429993 -0.306808,-0.286652 -0.46021,-0.656627 -0.460205,-1.109924 -5e-6,-0.453277 0.153397,-0.823252 0.460205,-1.109924 0.306798,-0.286651 0.693354,-0.429981 1.159668,-0.429993 0.466709,1.2e-5 0.853468,0.143342 1.160278,0.429993 0.306796,0.286672 0.460198,0.656647 0.460205,1.109924 -7e-6,0.453297 -0.153409,0.823272 -0.460205,1.109924 -0.30681,0.286671 -0.693569,0.430001 -1.160278,0.429993 z m 0,7.200317 c -0.466314,2e-6 -0.85287,-0.143329 -1.159668,-0.429992 -0.306808,-0.28666 -0.46021,-0.656634 -0.460205,-1.109925 -5e-6,-0.453284 0.153397,-0.823259 0.460205,-1.109924 0.306798,-0.286657 0.693354,-0.429988 1.159668,-0.429993 0.466709,5e-6 0.853468,0.143336 1.160278,0.429993 0.306796,0.286665 0.460198,0.65664 0.460205,1.109924 -7e-6,0.453291 -0.153409,0.823265 -0.460205,1.109925 -0.30681,0.286663 -0.693569,0.429994 -1.160278,0.429992 z M 13.296,18.916658 l 0,-2.079467 9.199829,0 0,2.079467 z"
         style="font-size:20px;font-variant:normal;font-weight:bold;font-stretch:normal;font-family:Source Code Pro;-inkscape-font-specification:Source Code Pro Bold;"
         id="path4347" />
    </g>
    <g
       style="font-size:40px;font-style:normal;font-weight:normal;line-height:125%;letter-spacing:0px;word-spacing:0px;fill-opacity:1;stroke:none;font-family:sans-serif"
       id="text4332">
      <path
         d="m 13.296,7.0895805 0,-2.0794677 9.199829,0 0,2.0794677 z"
         style="font-size:20px;font-variant:normal;font-weight:bold;font-stretch:normal;font-family:Source Code Pro;-inkscape-font-specification:Source Code Pro Bold;"
         id="path4344" />
    </g>
    <g
       style="font-size:20px;font-style:normal;font-variant:normal;font-weight:normal;font-stretch:normal;line-height:125%;letter-spacing:0px;word-spacing:0px;fill-opacity:1;stroke:none;font-family:Source Code Pro;-inkscape-font-specification:Source Code Pro"
       id="text4336">
      <path
         d="M 3.2295446,22.2269 1.7695836,20.746798 4.6095495,17.88669 1.7695836,15.007051 3.2295446,13.526949 6.0890416,16.406588 8.9491491,13.526949 10.40911,15.007051 7.5691442,17.88669 10.40911,20.746798 8.9491491,22.2269 6.0890416,19.346651 z"
         style="font-weight:bold;-inkscape-font-specification:Source Code Pro Bold;"
         id="path4341" />
    </g>
  </g>
</svg>
