<?xml version="1.0" encoding="UTF-8" standalone="no"?>
<!-- Created with Inkscape (http://www.inkscape.org/) -->

<!-- 362 == 256 * sqrt(2) -->

<svg
   xmlns:dc="http://purl.org/dc/elements/1.1/"
   xmlns:cc="http://creativecommons.org/ns#"
   xmlns:rdf="http://www.w3.org/1999/02/22-rdf-syntax-ns#"
   xmlns:svg="http://www.w3.org/2000/svg"
   xmlns="http://www.w3.org/2000/svg"
   xmlns:sodipodi="http://sodipodi.sourceforge.net/DTD/sodipodi-0.dtd"
   xmlns:inkscape="http://www.inkscape.org/namespaces/inkscape"
   viewBox="0 0 24 24"
   id="svg2"
   version="1.1"
   inkscape:version="0.48.5 r10040"
   sodipodi:docname="scalar.svg"
   width="100%"
   height="100%">
  <defs
     id="defs4">
    <marker
       inkscape:stockid="TriangleInM"
       orient="auto"
       refY="0.0"
       refX="0.0"
       id="TriangleInM"
       style="overflow:visible">
      <path
         id="path3988"
         d="M 5.77,0.0 L -2.88,5.0 L -2.88,-5.0 L 5.77,0.0 z "
         style="fill-rule:evenodd;stroke:#000000;stroke-width:1.0pt"
         transform="scale(-0.4)" />
    </marker>
    <marker
       inkscape:stockid="TriangleInS"
       orient="auto"
       refY="0.0"
       refX="0.0"
       id="TriangleInS"
       style="overflow:visible">
      <path
         id="path3991"
         d="M 5.77,0.0 L -2.88,5.0 L -2.88,-5.0 L 5.77,0.0 z "
         style="fill-rule:evenodd;stroke:#000000;stroke-width:1.0pt"
         transform="scale(-0.2)" />
    </marker>
    <marker
       inkscape:stockid="Arrow1Sstart"
       orient="auto"
       refY="0.0"
       refX="0.0"
       id="Arrow1Sstart"
       style="overflow:visible">
      <path
         id="path3864"
         d="M 0.0,0.0 L 5.0,-5.0 L -12.5,0.0 L 5.0,5.0 L 0.0,0.0 z "
         style="fill-rule:evenodd;stroke:#000000;stroke-width:1.0pt"
         transform="scale(0.2) translate(6,0)" />
    </marker>
    <marker
       inkscape:stockid="Scissors"
       orient="auto"
       refY="0"
       refX="0"
       id="Scissors"
       style="overflow:visible">
      <path
         id="schere"
         d="M 9.0898857,-3.6061018 C 8.1198849,-4.7769976 6.3697607,-4.7358294 5.0623558,-4.2327734 l -8.2124046,3.0779029 c -2.3882933,-1.3067135 -4.7482873,-0.9325372 -4.7482873,-1.5687873 0,-0.4973164 0.4566662,-0.3883222 0.3883068,-1.6831941 -0.065635,-1.2432767 -1.3635771,-2.1630796 -2.5903987,-2.0816435 -1.227271,-0.00735 -2.499439,0.9331613 -2.510341,2.2300611 -0.09143,1.3063864 1.007209,2.5196896 2.306764,2.6052316 1.5223406,0.2266616 4.218258,-0.6955566 5.482945,1.57086006 -0.9422847,1.73825774 -2.6140244,1.74307674 -4.1255107,1.65607034 -1.2548743,-0.072235 -2.7620933,0.2873979 -3.3606483,1.5208605 -0.578367,1.1820862 -0.0112,2.8646022 1.316749,3.226412 1.3401912,0.4918277 3.1806689,-0.129711 3.4993722,-1.6707242 0.2456585,-1.187823 -0.5953659,-1.7459574 -0.2725074,-2.1771537 0.2436135,-0.32536 1.7907806,-0.1368452 4.5471053,-1.3748244 L 5.6763468,4.2330688 C 6.8000164,4.5467672 8.1730685,4.5362646 9.1684433,3.4313614 L -0.05164093,-0.05372222 9.0898857,-3.6061018 z m -18.3078016,-1.900504 c 1.294559,0.7227998 1.1888392,2.6835702 -0.1564272,3.0632889 -1.2165179,0.423661 -2.7710269,-0.7589694 -2.3831779,-2.0774648 0.227148,-1.0818519 1.653387,-1.480632 2.5396051,-0.9858241 z m 0.056264,8.0173649 c 1.3508301,0.4988648 1.1214429,2.7844356 -0.2522207,3.091609 -0.9110594,0.3163391 -2.2135494,-0.1387976 -2.3056964,-1.2121394 -0.177609,-1.305055 1.356085,-2.4841482 2.5579171,-1.8794696 z"
         style="fill:#000000"
         inkscape:connector-curvature="0" />
    </marker>
    <marker
       inkscape:stockid="TriangleOutS"
       orient="auto"
       refY="0"
       refX="0"
       id="TriangleOutS"
       style="overflow:visible">
      <path
         id="path4000"
         d="m 5.77,0 -8.65,5 0,-10 8.65,5 z"
         style="fill-rule:evenodd;stroke:#000000;stroke-width:1pt"
         transform="scale(0.2,0.2)"
         inkscape:connector-curvature="0" />
    </marker>
    <marker
       inkscape:stockid="TriangleOutM"
       orient="auto"
       refY="0"
       refX="0"
       id="TriangleOutM"
       style="overflow:visible">
      <path
         id="path3997"
         d="m 5.77,0 -8.65,5 0,-10 8.65,5 z"
         style="fill-rule:evenodd;stroke:#000000;stroke-width:1pt"
         transform="scale(0.4,0.4)"
         inkscape:connector-curvature="0" />
    </marker>
    <marker
       inkscape:stockid="TriangleOutL"
       orient="auto"
       refY="0"
       refX="0"
       id="TriangleOutL"
       style="overflow:visible">
      <path
         id="path3994"
         d="m 5.77,0 -8.65,5 0,-10 8.65,5 z"
         style="fill-rule:evenodd;stroke:#000000;stroke-width:1pt"
         transform="scale(0.8,0.8)"
         inkscape:connector-curvature="0" />
    </marker>
    <marker
       inkscape:stockid="Arrow2Lend"
       orient="auto"
       refY="0"
       refX="0"
       id="Arrow2Lend"
       style="overflow:visible">
      <path
         id="path3873"
         style="fill-rule:evenodd;stroke-width:0.625;stroke-linejoin:round"
         d="M 8.7185878,4.0337352 -2.2072895,0.01601326 8.7185884,-4.0017078 c -1.7454984,2.3720609 -1.7354408,5.6174519 -6e-7,8.035443 z"
         transform="matrix(-1.1,0,0,-1.1,-1.1,0)"
         inkscape:connector-curvature="0" />
    </marker>
    <marker
       inkscape:stockid="Arrow1Lend"
       orient="auto"
       refY="0"
       refX="0"
       id="Arrow1Lend"
       style="overflow:visible">
      <path
         id="path3855"
         d="M 0,0 5,-5 -12.5,0 5,5 0,0 z"
         style="fill-rule:evenodd;stroke:#000000;stroke-width:1pt"
         transform="matrix(-0.8,0,0,-0.8,-10,0)"
         inkscape:connector-curvature="0" />
    </marker>
    <marker
       inkscape:stockid="Arrow1Mend"
       orient="auto"
       refY="0"
       refX="0"
       id="Arrow1Mend"
       style="overflow:visible">
      <path
         id="path3861"
         d="M 0,0 5,-5 -12.5,0 5,5 0,0 z"
         style="fill-rule:evenodd;stroke:#000000;stroke-width:1pt"
         transform="matrix(-0.4,0,0,-0.4,-4,0)"
         inkscape:connector-curvature="0" />
    </marker>
    <marker
       inkscape:stockid="TriangleOutM"
       orient="auto"
       refY="0"
       refX="0"
       id="TriangleOutM-8"
       style="overflow:visible">
      <path
         inkscape:connector-curvature="0"
         id="path3997-8"
         d="m 5.77,0 -8.65,5 0,-10 8.65,5 z"
         style="fill-rule:evenodd;stroke:#000000;stroke-width:1pt"
         transform="scale(0.4,0.4)" />
    </marker>
  </defs>
  <sodipodi:namedview
     id="base"
     pagecolor="#ffffff"
     bordercolor="#666666"
     borderopacity="1.0"
     inkscape:pageopacity="0.0"
     inkscape:pageshadow="2"
     inkscape:zoom="22.4"
     inkscape:cx="-6.6325609"
     inkscape:cy="15.637385"
     inkscape:document-units="px"
     inkscape:current-layer="g3016"
     showgrid="true"
     inkscape:snap-global="false"
     showguides="true"
     inkscape:guide-bbox="true"
     inkscape:window-width="2560"
     inkscape:window-height="1371"
     inkscape:window-x="1912"
     inkscape:window-y="-8"
     inkscape:window-maximized="1">
    <inkscape:grid
       type="xygrid"
       id="grid2989"
       empspacing="5"
       visible="true"
       enabled="true"
       snapvisiblegridlinesonly="true" />
  </sodipodi:namedview>
  <metadata
     id="metadata7">
    <rdf:RDF>
      <cc:Work
         rdf:about="">
        <dc:format>image/svg+xml</dc:format>
        <dc:type
           rdf:resource="http://purl.org/dc/dcmitype/StillImage" />
        <dc:title />
      </cc:Work>
    </rdf:RDF>
  </metadata>
  <g
     inkscape:label="Layer 1"
     inkscape:groupmode="layer"
     id="layer1"
     transform="translate(0,-1028.3622)"
     style="opacity:0.26422765;display:inline"
     sodipodi:insensitive="true">
    <path
       sodipodi:type="arc"
       style="fill:#008080"
       id="path2987"
       sodipodi:cx="127.91057"
       sodipodi:cy="128.08943"
       sodipodi:rx="128.1631"
       sodipodi:ry="128.1631"
       d="m 256.07367,128.08943 a 128.1631,128.1631 0 1 1 -256.32620296,0 128.1631,128.1631 0 1 1 256.32620296,0 z"
       transform="matrix(0.12484092,0,0,0.12484092,-3.9679686,1024.3709)" />
    <text
       xml:space="preserve"
       style="font-size:5px;font-style:normal;font-weight:normal;line-height:125%;letter-spacing:0px;word-spacing:0px;fill:#000000;fill-opacity:1;stroke:none;font-family:sans-serif"
       x="-3.6465712"
       y="1023.131"
       id="text2991"
       sodipodi:linespacing="125%"><tspan
         sodipodi:role="line"
         id="tspan2993"
         x="-3.6465712"
         y="1023.131"
         style="font-style:normal;font-variant:normal;font-weight:bold;font-stretch:normal;font-family:Source Code Pro;-inkscape-font-specification:Source Code Pro Bold">1234567890</tspan></text>
    <path
       style="fill:none;stroke:#000000;stroke-width:0.1239901px;stroke-linecap:butt;stroke-linejoin:miter;stroke-opacity:1"
       d="m -3.9375,1024.4241 31.87601,31.8756"
       id="path3050"
       inkscape:connector-curvature="0" />
  </g>
  <g
     style="display:none"
     inkscape:label="Layer#2"
     id="g8942"
     inkscape:groupmode="layer"
     sodipodi:insensitive="true">
    <text
       xml:space="preserve"
       style="font-size:4.48878431px;font-style:normal;font-weight:normal;line-height:125%;letter-spacing:0px;word-spacing:0px;fill-opacity:1;stroke:none;display:inline;font-family:sans-serif"
       x="0.017870318"
       y="12.36508"
       id="text2991-1"
       sodipodi:linespacing="125%"><tspan
         sodipodi:role="line"
         id="tspan2993-7"
         x="0.017870318"
         y="12.36508"
         style="font-size:16.1596241px;font-style:normal;font-variant:normal;font-weight:bold;font-stretch:normal;font-family:Source Code Pro;-inkscape-font-specification:Source Code Pro Bold">1</tspan></text>
    <text
       xml:space="preserve"
       style="font-size:4.48878431px;font-style:normal;font-weight:normal;line-height:125%;letter-spacing:0px;word-spacing:0px;fill-opacity:1;stroke:none;display:inline;font-family:sans-serif"
       x="7.0456967"
       y="17.137112"
       id="text2991-1-4"
       sodipodi:linespacing="125%"><tspan
         sodipodi:role="line"
         id="tspan2993-7-0"
         x="7.0456967"
         y="17.137112"
         style="font-size:16.1596241px;font-style:normal;font-variant:normal;font-weight:bold;font-stretch:normal;font-family:Source Code Pro;-inkscape-font-specification:Source Code Pro Bold">2</tspan></text>
    <text
       xml:space="preserve"
       style="font-size:4.48878431px;font-style:normal;font-weight:normal;line-height:125%;letter-spacing:0px;word-spacing:0px;fill-opacity:1;stroke:none;display:inline;font-family:sans-serif"
       x="14.124501"
       y="22.220892"
       id="text2991-1-9"
       sodipodi:linespacing="125%"><tspan
         sodipodi:role="line"
         id="tspan2993-7-4"
         x="14.124501"
         y="22.220892"
         style="font-size:16.1596241px;font-style:normal;font-variant:normal;font-weight:bold;font-stretch:normal;font-family:Source Code Pro;-inkscape-font-specification:Source Code Pro Bold">3</tspan></text>
  </g>
  <g
     inkscape:groupmode="layer"
     id="g3016"
     inkscape:label="Layer"
     style="display:inline">
    <g
       style="font-size:4.48878431px;font-style:normal;font-weight:normal;line-height:125%;letter-spacing:0px;word-spacing:0px;fill-opacity:1;stroke:none;display:inline;font-family:sans-serif"
       id="text3018">
      <path
         d="m 1.2946424,12.36508 0,-1.922802 2.7631339,0 0,-5.9306531 -2.2783649,0 0,-1.4705811 C 2.1239585,2.9871352 2.4335759,2.9305871 2.7082643,2.8713994 2.9829473,2.8122306 3.2334686,2.7449153 3.4598288,2.6694534 3.6861822,2.5940108 3.8989773,2.5105037 4.0982149,2.4189318 4.2974442,2.3273799 4.4940475,2.2222563 4.6880254,2.1035608 l 1.745267,0 0,8.3387172 2.3266939,0 0,1.922802 z"
         style="font-size:16.1596241px;font-variant:normal;font-weight:bold;font-stretch:normal;font-family:Source Code Pro;-inkscape-font-specification:Source Code Pro Bold"
         id="path3037" />
    </g>
    <g
       style="font-size:4.48878431px;font-style:normal;font-weight:normal;line-height:125%;letter-spacing:0px;word-spacing:0px;fill-opacity:1;stroke:none;display:inline;font-family:sans-serif"
       id="text3022">
      <path
         d="m 7.9831798,17.137112 0,-1.357649 c 0.7324943,-0.613809 1.4003866,-1.187345 2.003679,-1.72061 0.6032862,-0.533259 1.1203562,-1.031507 1.5512112,-1.494745 0.430846,-0.46323 0.764792,-0.899587 1.00184,-1.309074 0.237036,-0.409475 0.355557,-0.797339 0.355563,-1.163593 -6e-6,-0.5062962 -0.145404,-0.891448 -0.436194,-1.1554569 -0.2908,-0.2639926 -0.705624,-0.395993 -1.24447,-0.3960016 -0.409321,8.6e-6 -0.783623,0.10505 -1.122909,0.3151246 C 9.7526086,9.0651981 9.4374844,9.3102947 9.1465268,9.5903976 L 7.8697547,8.3141187 C 8.1390149,8.0445377 8.4056458,7.8074137 8.6696482,7.602746 8.9336473,7.3980975 9.2137577,7.2284531 9.5099802,7.0938126 9.8061978,6.9591921 10.11861,6.856863 10.447217,6.7868251 c 0.3286,-0.070017 0.6923,-0.1050311 1.0911,-0.1050415 0.538517,1.04e-5 1.028628,0.078093 1.470334,0.2342475 0.441694,0.156175 0.821421,0.377025 1.139183,0.6625505 0.317747,0.2855446 0.565556,0.6276278 0.743427,1.0262505 0.177856,0.3986398 0.266788,0.8456822 0.266796,1.3411285 -8e-6,0.4310224 -0.10242,0.8700914 -0.307234,1.3172104 -0.204831,0.447131 -0.482311,0.894173 -0.832442,1.341129 -0.350145,0.446964 -0.751406,0.894007 -1.203785,1.341128 -0.452391,0.447128 -0.92631,0.886198 -1.421759,1.317211 0.290626,-0.03222 0.605668,-0.06181 0.945127,-0.08877 0.339448,-0.02696 0.643805,-0.04044 0.913072,-0.04044 l 2.440119,0 0,2.003679 z"
         style="font-size:16.1596241px;font-variant:normal;font-weight:bold;font-stretch:normal;font-family:Source Code Pro;-inkscape-font-specification:Source Code Pro Bold"
         id="path3034" />
    </g>
    <g
       style="font-size:4.48878431px;font-style:normal;font-weight:normal;line-height:125%;letter-spacing:0px;word-spacing:0px;fill-opacity:1;stroke:none;display:inline;font-family:sans-serif"
       id="text3026">
      <path
         d="m 18.632902,22.414701 c -0.883404,0 -1.642858,-0.131918 -2.278365,-0.395755 -0.635511,-0.263836 -1.152663,-0.616687 -1.551458,-1.058552 l 1.098744,-1.502636 c 0.344876,0.301483 0.73011,0.54921 1.155703,0.743181 0.425588,0.193975 0.875424,0.290962 1.349512,0.29096 0.559888,2e-6 1.020328,-0.10504 1.381321,-0.315125 0.360981,-0.21008 0.541475,-0.509095 0.541481,-0.897044 -6e-6,-0.22619 -0.0485,-0.430848 -0.14548,-0.613975 -0.09699,-0.18312 -0.264007,-0.336655 -0.501043,-0.460605 -0.237047,-0.123941 -0.554884,-0.220928 -0.95351,-0.29096 -0.398636,-0.07002 -0.899597,-0.105037 -1.502883,-0.105041 l 0,-1.680664 c 1.012931,6e-6 1.726769,-0.12657 2.141515,-0.379728 0.414736,-0.253145 0.622106,-0.584378 0.622112,-0.993702 -6e-6,-0.355391 -0.134718,-0.632789 -0.404138,-0.832195 -0.269431,-0.19939 -0.641021,-0.299089 -1.114772,-0.299097 -0.409649,8e-6 -0.786828,0.0808 -1.131538,0.242384 -0.344717,0.161598 -0.694773,0.382448 -1.050169,0.662551 l -1.195895,-1.454307 c 0.506302,-0.409307 1.047619,-0.729774 1.623952,-0.961401 0.576328,-0.231607 1.198521,-0.347416 1.866582,-0.347426 0.560217,1e-5 1.071944,0.06198 1.535184,0.185918 0.463228,0.123956 0.86186,0.30708 1.195895,0.549372 0.334021,0.242312 0.592598,0.53582 0.775729,0.880524 0.183116,0.344722 0.274678,0.743436 0.274686,1.196142 -8e-6,0.53853 -0.172365,0.993627 -0.51707,1.365293 -0.344721,0.371678 -0.824147,0.676036 -1.43828,0.913072 l 0,0.0646 c 0.646352,0.17228 1.190381,0.46587 1.632089,0.88077 0.441692,0.41491 0.662542,0.956227 0.66255,1.623952 -8e-6,0.474086 -0.110474,0.896964 -0.331398,1.268635 -0.220941,0.371674 -0.517243,0.684086 -0.888908,0.937236 -0.371679,0.253152 -0.805242,0.447043 -1.30069,0.581674 -0.495459,0.13463 -1.012611,0.201946 -1.551458,0.201946 z"
         style="font-size:16.1596241px;font-variant:normal;font-weight:bold;font-stretch:normal;font-family:Source Code Pro;-inkscape-font-specification:Source Code Pro Bold"
         id="path3031" />
    </g>
  </g>
</svg>
