<?xml version="1.0" encoding="UTF-8" standalone="no"?>
<!-- Created with Inkscape (http://www.inkscape.org/) -->

<!-- 362 == 256 * sqrt(2) -->

<svg
   xmlns:dc="http://purl.org/dc/elements/1.1/"
   xmlns:cc="http://creativecommons.org/ns#"
   xmlns:rdf="http://www.w3.org/1999/02/22-rdf-syntax-ns#"
   xmlns:svg="http://www.w3.org/2000/svg"
   xmlns="http://www.w3.org/2000/svg"
   xmlns:sodipodi="http://sodipodi.sourceforge.net/DTD/sodipodi-0.dtd"
   xmlns:inkscape="http://www.inkscape.org/namespaces/inkscape"
   viewBox="0 0 24 24"
   id="svg2"
   version="1.1"
   inkscape:version="0.48.5 r10040"
   sodipodi:docname="vector.svg"
   width="100%"
   height="100%">
  <defs
     id="defs4">
    <marker
       inkscape:stockid="TriangleInM"
       orient="auto"
       refY="0.0"
       refX="0.0"
       id="TriangleInM"
       style="overflow:visible">
      <path
         id="path3988"
         d="M 5.77,0.0 L -2.88,5.0 L -2.88,-5.0 L 5.77,0.0 z "
         style="fill-rule:evenodd;stroke:#000000;stroke-width:1.0pt"
         transform="scale(-0.4)" />
    </marker>
    <marker
       inkscape:stockid="TriangleInS"
       orient="auto"
       refY="0.0"
       refX="0.0"
       id="TriangleInS"
       style="overflow:visible">
      <path
         id="path3991"
         d="M 5.77,0.0 L -2.88,5.0 L -2.88,-5.0 L 5.77,0.0 z "
         style="fill-rule:evenodd;stroke:#000000;stroke-width:1.0pt"
         transform="scale(-0.2)" />
    </marker>
    <marker
       inkscape:stockid="Arrow1Sstart"
       orient="auto"
       refY="0.0"
       refX="0.0"
       id="Arrow1Sstart"
       style="overflow:visible">
      <path
         id="path3864"
         d="M 0.0,0.0 L 5.0,-5.0 L -12.5,0.0 L 5.0,5.0 L 0.0,0.0 z "
         style="fill-rule:evenodd;stroke:#000000;stroke-width:1.0pt"
         transform="scale(0.2) translate(6,0)" />
    </marker>
    <marker
       inkscape:stockid="Scissors"
       orient="auto"
       refY="0"
       refX="0"
       id="Scissors"
       style="overflow:visible">
      <path
         id="schere"
         d="M 9.0898857,-3.6061018 C 8.1198849,-4.7769976 6.3697607,-4.7358294 5.0623558,-4.2327734 l -8.2124046,3.0779029 c -2.3882933,-1.3067135 -4.7482873,-0.9325372 -4.7482873,-1.5687873 0,-0.4973164 0.4566662,-0.3883222 0.3883068,-1.6831941 -0.065635,-1.2432767 -1.3635771,-2.1630796 -2.5903987,-2.0816435 -1.227271,-0.00735 -2.499439,0.9331613 -2.510341,2.2300611 -0.09143,1.3063864 1.007209,2.5196896 2.306764,2.6052316 1.5223406,0.2266616 4.218258,-0.6955566 5.482945,1.57086006 -0.9422847,1.73825774 -2.6140244,1.74307674 -4.1255107,1.65607034 -1.2548743,-0.072235 -2.7620933,0.2873979 -3.3606483,1.5208605 -0.578367,1.1820862 -0.0112,2.8646022 1.316749,3.226412 1.3401912,0.4918277 3.1806689,-0.129711 3.4993722,-1.6707242 0.2456585,-1.187823 -0.5953659,-1.7459574 -0.2725074,-2.1771537 0.2436135,-0.32536 1.7907806,-0.1368452 4.5471053,-1.3748244 L 5.6763468,4.2330688 C 6.8000164,4.5467672 8.1730685,4.5362646 9.1684433,3.4313614 L -0.05164093,-0.05372222 9.0898857,-3.6061018 z m -18.3078016,-1.900504 c 1.294559,0.7227998 1.1888392,2.6835702 -0.1564272,3.0632889 -1.2165179,0.423661 -2.7710269,-0.7589694 -2.3831779,-2.0774648 0.227148,-1.0818519 1.653387,-1.480632 2.5396051,-0.9858241 z m 0.056264,8.0173649 c 1.3508301,0.4988648 1.1214429,2.7844356 -0.2522207,3.091609 -0.9110594,0.3163391 -2.2135494,-0.1387976 -2.3056964,-1.2121394 -0.177609,-1.305055 1.356085,-2.4841482 2.5579171,-1.8794696 z"
         style="fill:#000000"
         inkscape:connector-curvature="0" />
    </marker>
    <marker
       inkscape:stockid="TriangleOutS"
       orient="auto"
       refY="0"
       refX="0"
       id="TriangleOutS"
       style="overflow:visible">
      <path
         id="path4000"
         d="m 5.77,0 -8.65,5 0,-10 8.65,5 z"
         style="fill-rule:evenodd;stroke:#000000;stroke-width:1pt"
         transform="scale(0.2,0.2)"
         inkscape:connector-curvature="0" />
    </marker>
    <marker
       inkscape:stockid="TriangleOutM"
       orient="auto"
       refY="0"
       refX="0"
       id="TriangleOutM"
       style="overflow:visible">
      <path
         id="path3997"
         d="m 5.77,0 -8.65,5 0,-10 8.65,5 z"
         style="fill-rule:evenodd;stroke:#000000;stroke-width:1pt"
         transform="scale(0.4,0.4)"
         inkscape:connector-curvature="0" />
    </marker>
    <marker
       inkscape:stockid="TriangleOutL"
       orient="auto"
       refY="0"
       refX="0"
       id="TriangleOutL"
       style="overflow:visible">
      <path
         id="path3994"
         d="m 5.77,0 -8.65,5 0,-10 8.65,5 z"
         style="fill-rule:evenodd;stroke:#000000;stroke-width:1pt"
         transform="scale(0.8,0.8)"
         inkscape:connector-curvature="0" />
    </marker>
    <marker
       inkscape:stockid="Arrow2Lend"
       orient="auto"
       refY="0"
       refX="0"
       id="Arrow2Lend"
       style="overflow:visible">
      <path
         id="path3873"
         style="fill-rule:evenodd;stroke-width:0.625;stroke-linejoin:round"
         d="M 8.7185878,4.0337352 -2.2072895,0.01601326 8.7185884,-4.0017078 c -1.7454984,2.3720609 -1.7354408,5.6174519 -6e-7,8.035443 z"
         transform="matrix(-1.1,0,0,-1.1,-1.1,0)"
         inkscape:connector-curvature="0" />
    </marker>
    <marker
       inkscape:stockid="Arrow1Lend"
       orient="auto"
       refY="0"
       refX="0"
       id="Arrow1Lend"
       style="overflow:visible">
      <path
         id="path3855"
         d="M 0,0 5,-5 -12.5,0 5,5 0,0 z"
         style="fill-rule:evenodd;stroke:#000000;stroke-width:1pt"
         transform="matrix(-0.8,0,0,-0.8,-10,0)"
         inkscape:connector-curvature="0" />
    </marker>
    <marker
       inkscape:stockid="Arrow1Mend"
       orient="auto"
       refY="0"
       refX="0"
       id="Arrow1Mend"
       style="overflow:visible">
      <path
         id="path3861"
         d="M 0,0 5,-5 -12.5,0 5,5 0,0 z"
         style="fill-rule:evenodd;stroke:#000000;stroke-width:1pt"
         transform="matrix(-0.4,0,0,-0.4,-4,0)"
         inkscape:connector-curvature="0" />
    </marker>
    <marker
       inkscape:stockid="TriangleOutM"
       orient="auto"
       refY="0"
       refX="0"
       id="TriangleOutM-8"
       style="overflow:visible">
      <path
         inkscape:connector-curvature="0"
         id="path3997-8"
         d="m 5.77,0 -8.65,5 0,-10 8.65,5 z"
         style="fill-rule:evenodd;stroke:#000000;stroke-width:1pt"
         transform="scale(0.4,0.4)" />
    </marker>
  </defs>
  <sodipodi:namedview
     id="base"
     pagecolor="#ffffff"
     bordercolor="#666666"
     borderopacity="1.0"
     inkscape:pageopacity="0.0"
     inkscape:pageshadow="2"
     inkscape:zoom="22.4"
     inkscape:cx="11.181925"
     inkscape:cy="16.252109"
     inkscape:document-units="px"
     inkscape:current-layer="g8942"
     showgrid="true"
     inkscape:snap-global="false"
     showguides="true"
     inkscape:guide-bbox="true"
     inkscape:window-width="2560"
     inkscape:window-height="1371"
     inkscape:window-x="1912"
     inkscape:window-y="-8"
     inkscape:window-maximized="1">
    <inkscape:grid
       type="xygrid"
       id="grid2989"
       empspacing="5"
       visible="true"
       enabled="true"
       snapvisiblegridlinesonly="true" />
  </sodipodi:namedview>
  <metadata
     id="metadata7">
    <rdf:RDF>
      <cc:Work
         rdf:about="">
        <dc:format>image/svg+xml</dc:format>
        <dc:type
           rdf:resource="http://purl.org/dc/dcmitype/StillImage" />
        <dc:title></dc:title>
      </cc:Work>
    </rdf:RDF>
  </metadata>
  <g
     inkscape:label="Layer 1"
     inkscape:groupmode="layer"
     id="layer1"
     transform="translate(0,-1028.3622)"
     style="opacity:0.26422765;display:inline"
     sodipodi:insensitive="true">
    <path
       sodipodi:type="arc"
       style="fill:#008080"
       id="path2987"
       sodipodi:cx="127.91057"
       sodipodi:cy="128.08943"
       sodipodi:rx="128.1631"
       sodipodi:ry="128.1631"
       d="m 256.07367,128.08943 a 128.1631,128.1631 0 1 1 -256.32620296,0 128.1631,128.1631 0 1 1 256.32620296,0 z"
       transform="matrix(0.12484092,0,0,0.12484092,-3.9679686,1024.3709)" />
    <text
       xml:space="preserve"
       style="font-size:5px;font-style:normal;font-weight:normal;line-height:125%;letter-spacing:0px;word-spacing:0px;fill:#000000;fill-opacity:1;stroke:none;font-family:sans-serif"
       x="-3.6465712"
       y="1023.131"
       id="text2991"
       sodipodi:linespacing="125%"><tspan
         sodipodi:role="line"
         id="tspan2993"
         x="-3.6465712"
         y="1023.131"
         style="font-style:normal;font-variant:normal;font-weight:bold;font-stretch:normal;font-family:Source Code Pro;-inkscape-font-specification:Source Code Pro Bold">1234567890</tspan></text>
    <path
       style="fill:none;stroke:#000000;stroke-width:0.1239901px;stroke-linecap:butt;stroke-linejoin:miter;stroke-opacity:1"
       d="m -3.9375,1024.4241 31.87601,31.8756"
       id="path3050"
       inkscape:connector-curvature="0" />
  </g>
  <g
     inkscape:groupmode="layer"
     id="layer2"
     inkscape:label="Layer"
     transform="translate(0,-232)"
     style="opacity:0.42682926;display:none"
     sodipodi:insensitive="true">
    <path
       inkscape:connector-curvature="0"
       id="path3059"
       d="m 10.635769,233.7494 a 1.0001,1.0001 0 0 0 -0.90625,0.63281 l -7.7148509,18.82031 a 1.0003234,1.0003234 0 0 0 1.85157,0.75781 l 7.7148409,-18.82031 a 1.0001,1.0001 0 0 0 -0.94531,-1.39062 z"
       style="font-size:medium;font-style:normal;font-variant:normal;font-weight:normal;font-stretch:normal;text-indent:0;text-align:start;text-decoration:none;line-height:normal;letter-spacing:normal;word-spacing:normal;text-transform:none;direction:ltr;block-progression:tb;writing-mode:lr-tb;text-anchor:start;baseline-shift:baseline;color:#000000;fill:#000000;fill-opacity:1;stroke:none;stroke-width:16;marker:none;visibility:visible;display:inline;overflow:visible;enable-background:accumulate;font-family:Sans;-inkscape-font-specification:Sans" />
    <path
       inkscape:connector-curvature="0"
       id="path6896"
       d="m 12.407219,230.48986 1.07667,7.92004 -7.40232,-3.03409 6.32565,-4.88595 z"
       style="fill:#000000;fill-rule:evenodd;stroke:#000000;stroke-width:0.8pt" />
    <path
       inkscape:connector-curvature="0"
       id="path3059-2"
       d="m 15.190449,249.06971 a 1.0001,1.0001 0 0 0 -0.26562,0.043 l -12.2617209,3.47656 a 1.0001,1.0001 0 1 0 0.54297,1.92187 l 12.2617209,-3.47265 a 1.0001,1.0001 0 0 0 -0.27735,-1.96875 z"
       style="font-size:medium;font-style:normal;font-variant:normal;font-weight:normal;font-stretch:normal;text-indent:0;text-align:start;text-decoration:none;line-height:normal;letter-spacing:normal;word-spacing:normal;text-transform:none;direction:ltr;block-progression:tb;writing-mode:lr-tb;text-anchor:start;baseline-shift:baseline;color:#000000;fill:#000000;fill-opacity:1;stroke:none;stroke-width:16;marker:none;visibility:visible;display:inline;overflow:visible;enable-background:accumulate;font-family:Sans;-inkscape-font-specification:Sans" />
    <path
       inkscape:connector-curvature="0"
       id="path6904"
       d="m 19.637409,248.81584 -5.56702,5.73539 -2.18148,-7.69683 7.7485,1.96144 z"
       style="fill:#000000;fill-rule:evenodd;stroke:#000000;stroke-width:0.8pt" />
  </g>
  <g
     inkscape:groupmode="layer"
     id="layer5"
     inkscape:label="Layer#1"
     style="display:none"
     sodipodi:insensitive="true">
    <path
       style="fill:none;stroke:#ff0000;stroke-width:2;stroke-linecap:round;stroke-linejoin:round;stroke-miterlimit:4;stroke-opacity:1;stroke-dasharray:none;marker-start:url(#TriangleInM);marker-end:url(#TriangleOutM-8);display:inline"
       d="M 15.3125,17.928571 3.1249999,21.366071 11.026786,4.0892858"
       id="path7536"
       inkscape:connector-curvature="0"
       sodipodi:nodetypes="ccc" />
  </g>
  <g
     style="display:inline"
     inkscape:label="Layer#2"
     id="g8942"
     inkscape:groupmode="layer">
    <g
       id="g8950">
      <path
         style="font-size:medium;font-style:normal;font-variant:normal;font-weight:normal;font-stretch:normal;text-indent:0;text-align:start;text-decoration:none;line-height:normal;letter-spacing:normal;word-spacing:normal;text-transform:none;direction:ltr;block-progression:tb;writing-mode:lr-tb;text-anchor:start;baseline-shift:baseline;color:#000000;fill-opacity:1;stroke:none;stroke-width:2;marker:none;visibility:visible;display:inline;overflow:visible;enable-background:accumulate;font-family:Sans;-inkscape-font-specification:Sans"
         d="M 14.589286,0.08482143 8.1339286,4.53125 10.852679,5.78125 3.9151786,20.9375 c -0.3509873,0.69559 0.4429508,1.63578 1.1875,1.40625 l 9.9687504,-2.8125 0.8125,2.875 5.5625,-5.71875 -7.75,-1.96875 0.8125,2.875 -7.8750004,2.21875 6.0312504,-13.21875 2.75,1.25 z"
         id="path8944"
         inkscape:connector-curvature="0"
         sodipodi:nodetypes="cccccccccccccc" />
    </g>
  </g>
</svg>
