<!-- Created with Inkscape (http://www.inkscape.org/) -->
<!-- 362 == 256 * sqrt(2) -->
<svg xmlns:rdf="http://www.w3.org/1999/02/22-rdf-syntax-ns#" xmlns="http://www.w3.org/2000/svg" height="100%" width="100%" version="1.1" xmlns:cc="http://creativecommons.org/ns#" xmlns:dc="http://purl.org/dc/elements/1.1/" viewBox="0 0 24 24">
 <defs></defs>
 <metadata>
  <rdf:RDF>
   <cc:Work rdf:about="">
    <dc:format>image/svg+xml</dc:format>
    <dc:type rdf:resource="http://purl.org/dc/dcmitype/StillImage"/>
    <dc:title/>
   </cc:Work>
  </rdf:RDF>
 </metadata>
 <path style="baseline-shift:baseline;block-progression:tb;color:#000000;direction:ltr;text-indent:0;text-align:start;enable-background:accumulate;text-transform:none;" d="M4.625,1.5312a0.9671,0.9671,0,0,0,-0.75,0.75l-3.8438,16.813a0.9671,0.9671,0,0,0,0.9375,1.187h22.062a0.9671,0.9671,0,0,0,0.938,-1.187l-3.844-16.813a0.9671,0.9671,0,0,0,-0.937,-0.75h-14.376a0.9671,0.9671,0,0,0,-0.1875,0zm0.9688,1.9063h2.9062l-0.1875,2.1563h-3.2187l0.5-2.1563zm9.9062,0h2.906l0.5,2.1563h-3.218l-0.188-2.1563zm-5.031,0.0313h3.062l0.188,2.125h-3.438l0.188-2.125zm-5.8128,4.0624h3.5l-0.2812,3.6568h-4.0625l0.8437-3.6568zm5.4688,0h3.75l0.281,3.6568h-4.3122l0.2812-3.6568zm5.719,0h3.5l0.844,3.6568h-4.063l-0.281-3.6568zm-12.469,5.5938h4.3438l-0.4376,5.219h-5.0937l1.1875-5.219zm6.3125,0h4.6245l0.438,5.219h-5.5l0.4375-5.219zm6.5935,0h4.344l1.187,5.219h-5.093l-0.438-5.219z"/>
</svg>
