<!-- Created with Inkscape (http://www.inkscape.org/) -->
<!-- 362 == 256 * sqrt(2) -->
<svg xmlns:rdf="http://www.w3.org/1999/02/22-rdf-syntax-ns#" xmlns="http://www.w3.org/2000/svg" height="100%" width="100%" version="1.1" xmlns:cc="http://creativecommons.org/ns#" xmlns:dc="http://purl.org/dc/elements/1.1/" viewBox="0 0 24 24">
 <defs></defs>
 <metadata>
  <rdf:RDF>
   <cc:Work rdf:about="">
    <dc:format>image/svg+xml</dc:format>
    <dc:type rdf:resource="http://purl.org/dc/dcmitype/StillImage"/>
    <dc:title/>
   </cc:Work>
  </rdf:RDF>
 </metadata>
 <g style="letter-spacing:0px;word-spacing:0px;" font-family="sans-serif" font-size="4.48878431px" line-height="125%" font-style="normal" font-weight="normal">
  <path d="m1.2946,12.365,0-1.9228,2.7631,0,0-5.9307-2.2784,0,0-1.4706c0.3447-0.0536,0.6543-0.1101,0.929-0.1693,0.2746-0.0592,0.5252-0.1265,0.7515-0.2019,0.2264-0.0755,0.4392-0.159,0.6384-0.2506,0.1992-0.0915,0.3958-0.1966,0.5898-0.3153h1.7453v8.3387h2.3267v1.9228z"/>
 </g>
 <g style="letter-spacing:0px;word-spacing:0px;" font-family="sans-serif" font-size="4.48878431px" line-height="125%" font-style="normal" font-weight="normal">
  <path d="m7.9832,17.137,0-1.3576c0.73249-0.61381,1.4004-1.1873,2.0037-1.7206,0.60329-0.53326,1.1204-1.0315,1.5512-1.4947,0.43085-0.46323,0.76479-0.89959,1.0018-1.3091,0.23704-0.40948,0.35556-0.79734,0.35556-1.1636-0.000006-0.5063-0.1454-0.89145-0.43619-1.1555-0.2908-0.26399-0.70562-0.39599-1.2445-0.396-0.40932,0.0000086-0.78362,0.10505-1.1229,0.31512-0.3404,0.2116-0.6555,0.4567-0.9465,0.7368l-1.2767-1.2763c0.2692-0.2696,0.5358-0.5067,0.7998-0.7114,0.264-0.2046,0.5442-0.3742,0.8404-0.5089,0.2962-0.1346,0.609-0.2369,0.937-0.307,0.3286-0.070017,0.6923-0.10503,1.0911-0.10504,0.53852,0.0000104,1.0286,0.078093,1.4703,0.23425,0.44169,0.15618,0.82142,0.37702,1.1392,0.66255,0.31775,0.28554,0.56556,0.62763,0.74343,1.0263,0.17786,0.39864,0.26679,0.84568,0.2668,1.3411-0.000008,0.43102-0.10242,0.87009-0.30723,1.3172-0.20483,0.44713-0.48231,0.89417-0.83244,1.3411-0.35014,0.44696-0.75141,0.89401-1.2038,1.3411-0.45239,0.44713-0.92631,0.8862-1.4218,1.3172,0.29063-0.03222,0.60567-0.06181,0.94513-0.08877,0.33945-0.02696,0.6438-0.04044,0.91307-0.04044h2.4401v2.0037z"/>
 </g>
 <g style="letter-spacing:0px;word-spacing:0px;" font-family="sans-serif" font-size="4.48878431px" line-height="125%" font-style="normal" font-weight="normal">
  <path d="m18.633,22.415c-0.8834,0-1.6429-0.13192-2.2784-0.39576-0.63551-0.26384-1.1527-0.61669-1.5515-1.0586l1.0987-1.5026c0.34488,0.30148,0.73011,0.54921,1.1557,0.74318,0.42559,0.19398,0.87542,0.29096,1.3495,0.29096,0.55989,0.000002,1.0203-0.10504,1.3813-0.31512,0.36098-0.21008,0.54148-0.5091,0.54148-0.89704-0.000006-0.22619-0.0485-0.43085-0.14548-0.61398-0.09699-0.18312-0.26401-0.33666-0.50104-0.4606-0.23705-0.12394-0.55488-0.22093-0.95351-0.29096-0.39864-0.07002-0.8996-0.10504-1.5029-0.10504v-1.6807c1.0129,0.000006,1.7268-0.12657,2.1415-0.37973,0.41474-0.25314,0.62211-0.58438,0.62211-0.9937-0.000006-0.35539-0.13472-0.63279-0.40414-0.8322-0.26943-0.19939-0.64102-0.29909-1.1148-0.2991-0.40965,0.000008-0.78683,0.0808-1.1315,0.24238-0.34472,0.1616-0.69477,0.38245-1.0502,0.66255l-1.1959-1.4543c0.5063-0.40931,1.0476-0.72977,1.624-0.9614,0.57633-0.23161,1.1985-0.34742,1.8666-0.34743,0.56022,0.00001,1.0719,0.06198,1.5352,0.18592,0.46323,0.12396,0.86186,0.30708,1.1959,0.54937,0.33402,0.24231,0.5926,0.53582,0.77573,0.88052,0.18312,0.34472,0.27468,0.74344,0.27469,1.1961-0.000008,0.53853-0.17236,0.99363-0.51707,1.3653-0.34472,0.37168-0.82415,0.67604-1.4383,0.91307v0.0646c0.64635,0.17228,1.1904,0.46587,1.6321,0.88077,0.44169,0.41491,0.66254,0.95623,0.66255,1.624-0.000008,0.47409-0.11047,0.89696-0.3314,1.2686-0.22094,0.37167-0.51724,0.68409-0.88891,0.93724-0.37168,0.25315-0.80524,0.44704-1.3007,0.58167s-1.0126,0.20195-1.5515,0.20195z"/>
 </g>
</svg>
